<svg xmlns="http://www.w3.org/2000/svg" width="61.9956" height="73.4796" viewBox="0 0 61.9956 73.4796"><title>add cart</title><g id="Layer_2" data-name="Layer 2"><g id="Layer_1-2" data-name="Layer 1"><path d="M56.2485,23.001H50.5148c0,1.8054,0,3.5992,0,5.3929,0,1.0042.0216,2.009-.0065,3.0125a2.8687,2.8687,0,1,1-5.7287.0155c-.0328-2.763-.0087-5.5267-.0087-8.3713H17.225c0,1.7546,0,3.5482,0,5.3418,0,1.0042.0215,2.009-.0065,3.0125a2.8688,2.8688,0,1,1-5.7287.0184c-.0329-2.7631-.0087-5.5269-.0087-8.3722H5.8591v44.68H7.35q13.9154,0,27.8308.0008a10.91,10.91,0,0,1,1.29.0248,2.8636,2.8636,0,0,1,.0668,5.6866,8.2015,8.2015,0,0,1-1.1457.0321q-15.8521.0021-31.7042,0C.9489,73.475.0014,72.5168.0011,69.7517q-.0023-24.3877,0-48.7756c0-2.8325.9326-3.7511,3.7989-3.7532,2.5709-.0019,5.1417,0,7.6685,0C14.8655,5.557,21.4912-.1059,31.41.0015c7.3888.08,16.9948,5.1324,19.0761,17.2211,2.63,0,5.2936-.0048,7.9567.0013,2.5537.0059,3.5484,1.0023,3.55,3.571q.0065,13.1264-.0006,26.2527c-.0013,2.1719-1.1442,3.5049-2.9353,3.464-1.74-.04-2.8041-1.3325-2.8057-3.4493q-.0083-11.19-.0022-22.3794ZM17.5662,17.15h26.868c-.4715-6.1431-6.8366-11.45-13.59-11.4C24.2583,5.8,17.9492,11.193,17.5662,17.15Z"/><path d="M56.2515,61.9941c1.0433,0,1.94-.0308,2.8342.0066a2.8628,2.8628,0,1,1,.0475,5.7254c-.8983.0429-1.8.0076-2.8812.0076,0,.9837.0256,1.8749-.0054,2.7641a2.8661,2.8661,0,1,1-5.73.0445c-.0337-.8573-.0059-1.717-.0059-2.8066-.9277,0-1.8113.0205-2.6935-.0043a2.8708,2.8708,0,1,1-.0437-5.7336c.8517-.0271,1.705-.0047,2.7368-.0047,0-.9827-.0249-1.874.0053-2.7633a2.8659,2.8659,0,1,1,5.7293-.0468C56.28,60.0406,56.2515,60.9008,56.2515,61.9941Z"/></g></g></svg>