<svg xmlns="http://www.w3.org/2000/svg" width="91.1423" height="80.1232" viewBox="0 0 91.1423 80.1232"><title>cart</title><g id="Layer_2" data-name="Layer 2"><g id="Layer_1-2" data-name="Layer 1"><path d="M74.9769,64.2463c4.92,3.2581,6.4415,6.4584,5.1064,10.46a8.0091,8.0091,0,0,1-15.3994-.8871c-.8679-3.7706.9646-7.0832,5.5037-9.4865H37.3186c4.7521,3.0555,6.29,6.2187,5.04,10.2232a8.0026,8.0026,0,0,1-15.4474-.7576c-.8531-3.7486.9452-6.9968,5.543-9.5134-1.54-.1019-2.7214-.1436-3.8943-.2646A7.5406,7.5406,0,0,1,22.0413,59.2a7.667,7.667,0,0,1,1.1962-8.1875,3.0241,3.0241,0,0,1,1.0092-.9882c2.0083-.8555,1.7849-2.2918,1.3865-4.0481q-4.387-19.341-8.5945-38.7223c-.335-1.5463-.9653-1.975-2.4728-1.9342-3.738.1012-7.4807.0267-11.2214.0336A2.9978,2.9978,0,0,1,.3263,3.8934,2.5614,2.5614,0,0,1,2.5708.0623C7.9711-.042,13.3752.0055,18.7772.0545a2.6019,2.6019,0,0,1,2.5846,2.2863c.5082,2.1948,1.0651,4.3839,1.4354,6.6031.2329,1.3957.8438,1.7719,2.2311,1.7688q30.6385-.0684,61.2774-.031c.5937,0,1.1884-.0172,1.7811.0089,2.4813.1094,3.5307,1.5063,2.8545,3.9022q-3.3088,11.7234-6.6672,23.433-1.754,6.1569-3.5115,12.3127c-.7745,2.6939-1.3238,3.11-4.1636,3.1107q-22.8009.0089-45.6017.0076a11.743,11.743,0,0,0-2.1279.1144,2.5916,2.5916,0,0,0,.0643,5.1034,12.3127,12.3127,0,0,0,2.1292.1026q22.5337.0078,45.0675.0076a13,13,0,0,1,2.13.095,2.6079,2.6079,0,0,1,.0084,5.1577C77.2456,64.1943,76.1956,64.1761,74.9769,64.2463ZM24.62,16.1575a4.6342,4.6342,0,0,0,.0062.8446c2.2125,9.9467,4.4616,19.8853,6.6169,29.8443.2732,1.2623.9636,1.2516,1.8942,1.251,13.7056-.0081,27.4112-.0235,41.1166.0243,1.2639.0045,1.7181-.4419,2.0438-1.6013,2.6749-9.5226,5.4172-19.0264,8.1335-28.5376.1576-.552.2673-1.1179.4342-1.8253Zm10.0347,58.611a2.62,2.62,0,1,0-2.5715-2.6114A2.6356,2.6356,0,0,0,34.6548,74.7685Zm40.5-2.5929a2.6527,2.6527,0,1,0-2.7658,2.59A2.6281,2.6281,0,0,0,75.1552,72.1756Z"/></g></g></svg>