<svg xmlns="http://www.w3.org/2000/svg" width="71.3958" height="45.8785" viewBox="0 0 71.3958 45.8785"><title>eye</title><g id="Layer_2" data-name="Layer 2"><g id="Layer_1-2" data-name="Layer 1"><path d="M34.1627.0017C43.23.0133,49.8353,2.866,55.9812,7A66.7074,66.7074,0,0,1,70.2157,20.205c1.4294,1.7388,1.5929,3.5054.3115,5.0725C64.5919,32.5363,57.77,38.7219,49.1739,42.7408c-9.785,4.5751-19.4066,4.0452-28.8693-.9258C12.664,37.8011,6.4452,32.084,1.0083,25.4636a3.617,3.617,0,0,1-.1371-4.8569C7.0506,13.0474,14.1748,6.638,23.24,2.6905A28.9854,28.9854,0,0,1,34.1627.0017ZM36.037,6.3239c-8.9113-.37-16.4957,6.8834-16.9514,16.2116-.4368,8.94,6.9217,16.637,16.2766,17.0254,8.9114.37,16.4957-6.8833,16.9514-16.2116C52.75,14.4094,45.3919,6.7124,36.037,6.3239Z"/><path d="M47.1524,22.8854A11.4529,11.4529,0,1,1,35.7122,11.49,11.4108,11.4108,0,0,1,47.1524,22.8854Zm-18.5858-.76c1.0011,0,2.0117.0313,3.0177-.0225a.901.901,0,0,0,.6814-.4779,2.9842,2.9842,0,0,1,2.4751-2.1736V15.8168A6.1826,6.1826,0,0,0,28.5666,22.1253Z"/></g></g></svg>