<svg xmlns="http://www.w3.org/2000/svg" width="82.0052" height="57.6849" viewBox="0 0 82.0052 57.6849"><title>menu</title><g id="Layer_2" data-name="Layer 2"><g id="Layer_1-2" data-name="Layer 1"><path d="M40.9327,6.42q-18.2524,0-36.5049-.001A12.9455,12.9455,0,0,1,2.8287,6.386,3.1954,3.1954,0,0,1,2.8087.04a11.1066,11.1066,0,0,1,1.439-.033q36.745-.002,73.49,0A11.5375,11.5375,0,0,1,79.177.0379a3.1953,3.1953,0,0,1,.02,6.3457,12.4326,12.4326,0,0,1-1.599.0349Q59.2652,6.4208,40.9327,6.42Z"/><path d="M40.9928,32.0483q-18.3324,0-36.665-.0015A10.8062,10.8062,0,0,1,2.73,32.0024a3.1954,3.1954,0,0,1,.02-6.3253,11.33,11.33,0,0,1,1.5984-.0411q36.665-.0024,73.33-.0006a12.9319,12.9319,0,0,1,1.44.0241,3.197,3.197,0,0,1-.02,6.3658,13.2336,13.2336,0,0,1-1.44.0223Q59.3254,32.0489,40.9928,32.0483Z"/><path d="M41.015,51.2633q18.3324,0,36.665.0008a12.8838,12.8838,0,0,1,1.44.0243,3.197,3.197,0,0,1-.0243,6.3658,13.2845,13.2845,0,0,1-1.44.0221q-36.665.0012-73.33-.0008a10.7642,10.7642,0,0,1-1.5981-.0447,3.1953,3.1953,0,0,1,.024-6.3253A11.3766,11.3766,0,0,1,4.35,51.2647Q22.6826,51.262,41.015,51.2633Z"/></g></g></svg>