<svg xmlns="http://www.w3.org/2000/svg" width="69.9809" height="69.9858" viewBox="0 0 69.9809 69.9858"><title>search</title><g id="Layer_2" data-name="Layer 2"><g id="Layer_1-2" data-name="Layer 1"><path d="M45.3347,49.1076c-13.06,10.1149-29.853,7.3192-39.0516-3.8683a27.6792,27.6792,0,1,1,43.0112-.133c.3183.339.6426.7037.9869,1.0483q9.0312,9.0367,18.0635,18.0722a8.7863,8.7863,0,0,1,1.1707,1.327,2.8791,2.8791,0,0,1-3.9731,3.9621,8.8225,8.8225,0,0,1-1.3277-1.17q-8.9937-8.9778-17.9693-17.9738A9.7887,9.7887,0,0,1,45.3347,49.1076ZM5.8218,27.7119A21.8538,21.8538,0,1,0,27.6259,5.83,21.9,21.9,0,0,0,5.8218,27.7119Z"/></g></g></svg>